<svg xmlns="http://www.w3.org/2000/svg" width="1024" height="1024" viewBox="0 0 1024 1024"><path fill="none" d="M168.791 487.161l-26.467-15.231 19.809-11.403 6.658 26.634zm629.378-60.365L507.61 594.589 217.052 426.796 507.61 259.002l290.559 167.794zm82.746 45.134l-26.468 15.231 6.658-26.634 19.81 11.403z"/><path fill="#ff6851" d="M511.62 594.578l369.302-213.216L511.62 168.145 142.317 381.362 511.62 594.578z"/><path fill="#ff7a58" d="M511.62 549.328l354.377-204.6-354.377-204.6-354.378 204.6 354.378 204.6z"/><path fill="#ff895e" d="M511.62 504.077l339.452-195.983L511.62 112.111 172.167 308.094 511.62 504.077z"/><path fill="#ff9a64" d="M511.62 458.826L836.147 271.46 511.62 84.095 187.092 271.46 511.62 458.826z"/><path fill="#ffac6b" d="M511.62 413.576l309.602-178.749L511.62 56.077l-309.603 178.75L511.62 413.576z"/><path fill="#ffbb70" d="M511.62 368.325l294.678-170.132L511.62 28.061 216.942 198.193 511.62 368.325z"/><path fill="#fc7" d="M511.62 323.075l279.752-161.516L511.62.044 231.867 161.559 511.62 323.075z"/><path fill="#ff5f4f" d="M854.447 487.161l-67.084 269.585-31.378 126.178L511.619 1024l-1.747-.999 1.414-338 .333.166 342.828-198.006z"/><path fill="#ff9774" d="M511.286 685.001l-1.414 338-242.618-140.077-31.378-126.178-67.085-269.585 342.495 197.84z"/><path fill="#ff5f4f" d="M880.915 381.042l-19.81 79.485-6.658 26.634-342.828 198.006-.333-.166-342.495-197.84-6.658-26.634-19.809-79.485 78.737 45.444 290.558 167.793 290.559-167.793 78.737-45.444z"/><path fill="none" d="M511.619 597.525l-.333 87.476"/></svg>